<?xml version="1.0" encoding="UTF-8"?>
<!DOCTYPE svg PUBLIC "-//W3C//DTD SVG 1.1//EN" "http://www.w3.org/Graphics/SVG/1.1/DTD/svg11.dtd">
<!-- Creator: CorelDRAW 2020 (64 Bit) -->
<svg xmlns="http://www.w3.org/2000/svg" xml:space="preserve" width="210mm" height="297mm" version="1.1" style="shape-rendering:geometricPrecision; text-rendering:geometricPrecision; image-rendering:optimizeQuality; fill-rule:evenodd; clip-rule:evenodd"
viewBox="0 0 21000 29700"
 xmlns:xlink="http://www.w3.org/1999/xlink"
 xmlns:xodm="http://www.corel.com/coreldraw/odm/2003">
 <defs>
  <style type="text/css">
   <![CDATA[
    .fil0 {fill:maroon}
    .fil1 {fill:maroon;fill-rule:nonzero}
   ]]>
  </style>
 </defs>
 <g id="Camada_x0020_1">
  <metadata id="CorelCorpID_0Corel-Layer"/>
  <g>
   <path class="fil0" d="M1733.92 15250.81c0.04,-1.18 0.06,-2.36 0.06,-3.54 0,-27.65 -11.82,-52.55 -30.68,-69.89l-727.84 -727.83 0 1470.91c0,629.13 -510.9,1130.45 -1140.03,1130.45 -207.51,0 -402.06,-55.49 -569.63,-152.44l0.01 -1973.42c167.56,-96.94 362.11,-152.43 569.62,-152.43 319.52,0 601.89,124.42 808.75,336.31 17.4,21.41 43.96,35.1 73.7,35.1 52.42,0 94.93,-42.51 94.93,-94.93 0,-26.28 -10.69,-50.06 -27.93,-67.24 -241.11,-245.27 -578.35,-399.08 -949.45,-399.08 -733.97,0 -1328.98,595 -1328.98,1328.99 0,733.98 595.01,1328.99 1328.98,1328.99 484.06,0 907.68,-258.8 1140.03,-645.58l0 550.65c-5.45,39.71 36.16,94.93 94.04,94.93 27.5,0 47.16,-6.58 64.49,-25.28l1169.57 -1169.56 1328.09 1403.62 0 -2999.99 -733.48 733.48c-18.86,17.34 -25.04,36.59 -25.04,64.24 0,1.18 0.03,2.36 0.06,3.54l0 1096.46 -569.63 -569.64 -569.64 569.64 0 -1096.46zm-2657.84 1510.1c-233.08,-208.59 -379.78,-511.73 -379.78,-849.14 0,-337.41 146.69,-640.57 379.78,-849.15l0 1698.29zm42.84 -1968.63c0.61,-0.39 1.21,-0.79 1.83,-1.17l-1.83 1.17zm4323.84 114.44l0 2010.11 -379.84 -379.84 0 -1250.44 379.84 -379.83zm-1898.56 1630.27l-0.01 -1250.44 -379.84 -379.83 0 2010.11 379.85 -379.84z"/>
  </g>
  <path class="fil1" d="M7349.09 16854.41c-85.02,129.55 -190.28,222.67 -319.84,283.4 -157.89,72.87 -311.74,109.31 -461.53,109.31 -283.4,0 -518.21,-113.36 -708.5,-336.03 -190.28,-226.72 -283.4,-550.61 -283.4,-971.66 0,-445.35 85.02,-785.43 259.11,-1024.3 174.09,-238.86 408.91,-360.32 704.45,-360.32 238.86,0 453.44,72.87 647.77,222.67 56.68,44.54 113.36,101.22 157.89,170.04l80.98 -76.92 0 -12.15c-85.02,-101.21 -210.53,-194.33 -376.52,-279.35 -170.04,-85.02 -360.33,-129.55 -570.85,-129.55 -255.05,0 -489.87,60.72 -700.4,178.13 -214.58,117.41 -380.57,299.6 -497.98,546.56 -121.45,246.97 -178.13,506.08 -178.13,785.43 0,421.05 129.55,761.13 384.61,1020.24 259.11,255.07 591.1,384.62 995.94,384.62 384.62,0 700.41,-145.75 947.37,-425.1l-80.97 -85.02z"/>
  <path id="1" class="fil1" d="M8292.41 16647.93c0,-255.06 56.68,-437.25 133.6,-546.56 76.93,-109.31 190.29,-161.94 336.04,-161.94 145.75,0 259.11,52.63 336.03,161.94 76.92,109.31 133.6,291.5 133.6,546.56 0,259.11 -56.68,441.3 -133.6,542.51 -76.92,105.26 -190.28,157.9 -336.03,157.9 -141.7,0 -255.06,-52.64 -331.99,-157.9 -80.97,-101.21 -137.65,-283.4 -137.65,-542.51zm-259.11 -8.1c0,242.92 68.83,433.2 210.53,574.9 145.75,141.7 315.79,214.58 518.22,214.58 202.43,0 372.47,-68.83 518.21,-210.53 141.7,-141.7 210.52,-331.98 210.52,-578.95 0,-222.67 -68.82,-404.86 -210.52,-558.7 -137.64,-149.8 -311.73,-222.68 -518.21,-222.68 -206.48,0 -380.57,72.88 -518.22,222.68 -141.7,149.79 -210.53,336.03 -210.53,558.7z"/>
  <path id="2" class="fil1" d="M11616.29 16267.36c0,-89.07 -12.15,-117.41 -12.15,-117.41 -12.14,-113.36 -85.02,-194.33 -161.94,-246.96 -72.87,-56.68 -174.09,-85.02 -295.55,-85.02 -109.31,0 -210.52,24.29 -303.64,76.92 -93.12,52.63 -182.19,129.56 -263.16,234.82l0 -311.74 -259.11 0 0 591.09 0 445.35 0 510.12 259.11 0 0 -510.12 0 -619.44c80.97,-97.16 161.94,-170.04 238.87,-218.62 80.97,-48.58 157.89,-72.88 230.77,-72.88 76.92,0 141.7,20.25 194.33,64.78 52.63,40.49 85.02,93.12 93.12,149.8 12.14,60.73 16.19,153.85 16.19,283.4l0 412.96 0 510.12 263.16 0 0 -510.12 0 -587.05z"/>
  <polygon id="3" class="fil1" points="13794.42,15915.13 13255.96,17154 12701.3,15915.13 12421.95,15915.13 13106.16,17429.31 13207.38,17429.31 13875.39,15915.13 "/>
  <path id="4" class="fil1" d="M14814.67 15332.14c52.62,0 97.15,-20.25 133.59,-56.68 36.44,-36.44 56.68,-80.97 56.68,-137.65 0,-48.59 -20.24,-93.12 -56.68,-133.61 -36.44,-36.44 -80.97,-56.68 -133.59,-56.68 -52.63,0 -93.12,20.24 -133.61,56.68 -36.43,40.49 -52.63,85.02 -52.63,133.61 0,56.68 16.2,101.21 52.63,137.65 40.49,36.43 80.98,56.68 133.61,56.68l0 0zm-129.56 485.83l0 562.75 0 0c0,8.1 0,16.2 0,24.29l0 449.4 0 510.12 259.1 0 0 -510.12 0 -263.16 0 -773.28 -40.48 0 -218.62 0z"/>
  <path id="5" class="fil1" d="M15794.42 15915.13l0 80.98 210.53 0 0 825.91c0,170.04 8.1,287.45 24.29,356.27 16.19,64.78 56.68,125.51 121.46,174.09 64.78,52.64 137.65,76.93 222.67,76.93 72.87,0 145.75,-20.25 218.62,-60.73 72.88,-40.49 125.51,-97.17 161.95,-174.09l-56.68 -36.44c-60.73,97.17 -137.65,145.75 -222.68,145.75 -44.53,0 -85.02,-12.14 -121.45,-40.48 -40.49,-28.34 -64.78,-68.83 -76.93,-113.37 -12.14,-48.58 -16.19,-137.65 -16.19,-275.3l0 -878.54 437.25 0 0 -80.98 -437.25 0 0 -453.44 -255.06 0 0 453.44 -210.53 0z"/>
  <path id="6" class="fil1" d="M18672.96 17121.61c-93.12,141.71 -230.77,210.53 -412.96,210.53 -157.89,0 -279.35,-64.78 -356.28,-190.28 -80.97,-129.56 -121.45,-323.89 -121.45,-578.95 0,-32.39 4.05,-85.02 8.09,-153.85l991.91 0c0,-141.7 -40.49,-263.16 -145.75,-376.52 -101.22,-117.41 -251.01,-174.09 -441.3,-174.09 -202.43,0 -372.47,76.93 -506.07,226.73 -133.59,153.84 -202.42,344.13 -202.42,574.9 0,161.94 36.44,299.59 105.26,412.95 68.82,113.36 157.89,198.38 267.2,263.16 113.36,60.73 226.72,93.12 352.23,93.12 129.55,0 255.06,-36.44 364.37,-101.22 64.78,-40.48 117.41,-89.07 157.9,-145.75l-60.73 -60.73zm-489.88 -1186.23c315.79,0 384.61,319.84 384.61,400.81l-773.28 0c44.54,-267.21 170.04,-400.81 388.67,-400.81z"/>
  <path id="7" class="fil1" d="M19502.92 17214.73l0 4.05c4.05,-4.05 8.09,-4.05 8.09,-8.1l-8.09 4.05zm846.15 -384.61c-28.34,-93.12 -133.6,-206.48 -311.74,-331.99 -117.41,-85.02 -194.33,-157.89 -234.82,-210.52 -36.43,-56.69 -52.63,-113.37 -40.48,-178.14 12.14,-56.68 44.53,-101.22 97.16,-137.65 48.59,-32.39 109.32,-44.54 178.14,-28.35 93.12,16.2 161.94,68.83 214.58,157.9l64.77 -44.53c-60.72,-105.27 -149.79,-170.05 -267.2,-194.34 -121.46,-24.29 -226.72,0 -307.7,72.88 -85.02,72.87 -137.65,153.84 -153.84,246.96 -20.25,101.22 -4.05,190.29 44.53,267.21 48.59,80.97 137.65,174.09 267.21,271.25 121.46,93.12 206.48,170.04 242.91,226.73 36.44,56.68 48.59,121.45 32.39,198.38 -12.14,60.72 -44.53,117.41 -101.21,161.94 -52.63,44.53 -121.46,56.68 -210.53,40.49 -117.41,-24.3 -206.48,-89.07 -263.16,-194.34l-64.77 40.49c80.97,125.51 186.23,202.43 315.79,230.77 125.5,24.29 234.81,4.05 331.98,-56.68 97.17,-60.73 157.9,-153.85 182.19,-279.35 16.19,-76.93 8.09,-166 -16.2,-259.11z"/>
 </g>
</svg>
