<?xml version="1.0" encoding="UTF-8"?>
<!DOCTYPE svg PUBLIC "-//W3C//DTD SVG 1.1//EN" "http://www.w3.org/Graphics/SVG/1.1/DTD/svg11.dtd">
<!-- Creator: CorelDRAW 2020 (64 Bit) -->
<svg xmlns="http://www.w3.org/2000/svg" xml:space="preserve" width="210mm" height="297mm" version="1.1" style="shape-rendering:geometricPrecision; text-rendering:geometricPrecision; image-rendering:optimizeQuality; fill-rule:evenodd; clip-rule:evenodd"
viewBox="0 0 21000 29700"
 xmlns:xlink="http://www.w3.org/1999/xlink"
 xmlns:xodm="http://www.corel.com/coreldraw/odm/2003">
 <defs>
  <style type="text/css">
   <![CDATA[
    .fil0 {fill:maroon}
    .fil1 {fill:maroon;fill-rule:nonzero}
   ]]>
  </style>
 </defs>
 <g id="Camada_x0020_1">
  <metadata id="CorelCorpID_0Corel-Layer"/>
  <g id="_2248747888800">
   <g>
    <path class="fil0" d="M10997.34 13807.05c0.02,-0.89 0.04,-1.79 0.04,-2.68 0,-20.98 -8.96,-39.87 -23.28,-53.03l-552.24 -552.24 0 1116.04c0,477.35 -387.64,857.73 -864.99,857.73 -157.45,0 -305.06,-42.11 -432.2,-115.66l0 -1497.32c127.14,-73.56 274.76,-115.66 432.2,-115.66 242.44,0 456.68,94.4 613.63,255.18 13.21,16.24 33.35,26.62 55.92,26.62 39.78,0 72.03,-32.25 72.03,-72.02 0,-19.94 -8.11,-37.99 -21.19,-51.02 -182.94,-186.1 -438.82,-302.8 -720.39,-302.8 -556.9,0 -1008.35,451.45 -1008.35,1008.36 0,556.9 451.45,1008.36 1008.35,1008.36 367.28,0 688.7,-196.36 864.99,-489.82l0 417.79c-4.13,30.13 27.44,72.03 71.35,72.03 20.87,0 35.78,-4.99 48.93,-19.17l887.4 -887.4 1007.68 1064.99 0 -2276.23 -556.52 556.52c-14.31,13.16 -19,27.77 -19,48.75 0,0.89 0.02,1.79 0.05,2.68l0 831.93 -432.2 -432.2 -432.21 432.21 0 -831.94zm-2016.62 1145.78c-176.85,-158.26 -288.16,-388.27 -288.16,-644.28 0,-256 111.31,-486.02 288.16,-644.28l0 1288.56zm32.51 -1493.68c0.45,-0.3 0.91,-0.6 1.38,-0.89l-1.38 0.89zm3280.68 86.83l0 1525.16 -288.21 -288.2 0.01 -948.77 288.2 -288.19zm-1440.53 1236.96l0 -948.77 -288.2 -288.19 0 1525.16 288.2 -288.2z"/>
   </g>
   <path class="fil1" d="M9125.4 16351.04c-21.56,32.86 -48.25,56.47 -81.1,71.87 -40.04,18.48 -79.05,27.72 -117.04,27.72 -71.86,0 -131.41,-28.75 -179.66,-85.21 -48.25,-57.49 -71.86,-139.62 -71.86,-246.39 0,-112.93 21.56,-199.17 65.7,-259.74 44.15,-60.57 103.69,-91.37 178.63,-91.37 60.58,0 114.99,18.48 164.27,56.46 14.37,11.3 28.74,25.67 40.03,43.12l20.54 -19.5 0 -3.08c-21.56,-25.67 -53.39,-49.28 -95.48,-70.84 -43.12,-21.56 -91.37,-32.85 -144.76,-32.85 -64.67,0 -124.22,15.4 -177.6,45.17 -54.41,29.77 -96.51,75.97 -126.28,138.59 -30.8,62.63 -45.17,128.33 -45.17,199.17 0,106.77 32.85,193.01 97.53,258.71 65.7,64.68 149.89,97.53 252.55,97.53 97.53,0 177.61,-36.96 240.23,-107.8l-20.53 -21.56z"/>
   <path id="1" class="fil1" d="M9364.61 16298.69c0,-64.68 14.37,-110.88 33.88,-138.6 19.5,-27.72 48.25,-41.06 85.21,-41.06 36.96,0 65.7,13.34 85.21,41.06 19.5,27.72 33.88,73.92 33.88,138.6 0,65.7 -14.38,111.9 -33.88,137.56 -19.51,26.7 -48.25,40.04 -85.21,40.04 -35.94,0 -64.68,-13.34 -84.19,-40.04 -20.53,-25.66 -34.9,-71.86 -34.9,-137.56zm-65.71 -2.06c0,61.6 17.46,109.85 53.39,145.78 36.96,35.94 80.08,54.42 131.41,54.42 51.33,0 94.45,-17.46 131.41,-53.39 35.93,-35.93 53.38,-84.18 53.38,-146.81 0,-56.46 -17.45,-102.66 -53.38,-141.67 -34.91,-37.99 -79.06,-56.47 -131.41,-56.47 -52.36,0 -96.51,18.48 -131.41,56.47 -35.93,37.98 -53.39,85.21 -53.39,141.67z"/>
   <path id="2" class="fil1" d="M10207.47 16202.18c0,-22.58 -3.08,-29.77 -3.08,-29.77 -3.08,-28.74 -21.56,-49.28 -41.07,-62.62 -18.48,-14.38 -44.14,-21.56 -74.94,-21.56 -27.72,0 -53.39,6.16 -77,19.5 -23.61,13.35 -46.2,32.86 -66.73,59.55l0 -79.05 -65.7 0 0 149.89 0 112.92 0 129.36 65.7 0 0 -129.36 0 -157.07c20.53,-24.64 41.07,-43.12 60.57,-55.44 20.53,-12.32 40.04,-18.48 58.52,-18.48 19.51,0 35.93,5.14 49.28,16.43 13.34,10.27 21.56,23.61 23.61,37.98 3.08,15.4 4.11,39.02 4.11,71.87l0 104.71 0 129.36 66.73 0 0 -129.36 0 -148.86z"/>
   <polygon id="3" class="fil1" points="10759.78,16112.87 10623.24,16427.02 10482.59,16112.87 10411.75,16112.87 10585.25,16496.83 10610.92,16496.83 10780.31,16112.87 "/>
   <path id="4" class="fil1" d="M11018.49 15965.03c13.34,0 24.64,-5.13 33.88,-14.37 9.24,-9.24 14.37,-20.53 14.37,-34.91 0,-12.32 -5.13,-23.61 -14.37,-33.88 -9.24,-9.23 -20.54,-14.37 -33.88,-14.37 -13.35,0 -23.61,5.14 -33.88,14.37 -9.24,10.27 -13.35,21.56 -13.35,33.88 0,14.38 4.11,25.67 13.35,34.91 10.27,9.24 20.53,14.37 33.88,14.37l0 0zm-32.85 123.2l0 142.7 0 0c0,2.05 0,4.11 0,6.16l0 113.95 0 129.36 65.7 0 0 -129.36 0 -66.73 0 -196.08 -10.27 0 -55.43 0z"/>
   <path id="5" class="fil1" d="M11266.93 16112.87l0 20.53 53.39 0 0 209.43c0,43.12 2.05,72.89 6.16,90.35 4.1,16.42 14.37,31.82 30.8,44.14 16.42,13.35 34.9,19.51 56.46,19.51 18.48,0 36.96,-5.14 55.44,-15.4 18.48,-10.27 31.82,-24.64 41.06,-44.15l-14.37 -9.24c-15.4,24.64 -34.9,36.96 -56.46,36.96 -11.3,0 -21.56,-3.08 -30.8,-10.27 -10.27,-7.18 -16.43,-17.45 -19.51,-28.74 -3.08,-12.32 -4.1,-34.91 -4.1,-69.81l0 -222.78 110.87 0 0 -20.53 -110.87 0 0 -114.99 -64.68 0 0 114.99 -53.39 0z"/>
   <path id="6" class="fil1" d="M11996.87 16418.8c-23.62,35.93 -58.52,53.39 -104.72,53.39 -40.04,0 -70.84,-16.43 -90.34,-48.25 -20.54,-32.86 -30.8,-82.14 -30.8,-146.81 0,-8.22 1.02,-21.56 2.05,-39.01l251.53 0c0,-35.94 -10.27,-66.74 -36.96,-95.48 -25.67,-29.77 -63.65,-44.15 -111.91,-44.15 -51.33,0 -94.45,19.51 -128.32,57.49 -33.88,39.02 -51.34,87.27 -51.34,145.79 0,41.06 9.24,75.97 26.7,104.71 17.45,28.75 40.03,50.31 67.75,66.73 28.75,15.4 57.49,23.62 89.32,23.62 32.85,0 64.68,-9.24 92.4,-25.67 16.42,-10.27 29.77,-22.59 40.04,-36.96l-15.4 -15.4zm-124.23 -300.8c80.08,0 97.53,81.1 97.53,101.64l-196.08 0c11.29,-67.76 43.12,-101.64 98.55,-101.64z"/>
   <path id="7" class="fil1" d="M12207.33 16442.41l0 1.03c1.02,-1.03 2.05,-1.03 2.05,-2.05l-2.05 1.02zm214.56 -97.53c-7.18,-23.61 -33.88,-52.35 -79.05,-84.18 -29.77,-21.56 -49.28,-40.04 -59.54,-53.38 -9.24,-14.38 -13.35,-28.75 -10.27,-45.18 3.08,-14.37 11.29,-25.66 24.64,-34.9 12.32,-8.21 27.72,-11.29 45.17,-7.19 23.61,4.11 41.07,17.46 54.41,40.04l16.43 -11.29c-15.4,-26.69 -37.99,-43.12 -67.76,-49.28 -30.8,-6.16 -57.49,0 -78.02,18.48 -21.56,18.48 -34.91,39.01 -39.01,62.62 -5.14,25.67 -1.03,48.26 11.29,67.76 12.32,20.53 34.9,44.15 67.76,68.79 30.8,23.61 52.35,43.11 61.59,57.49 9.24,14.37 12.32,30.8 8.22,50.3 -3.08,15.4 -11.3,29.77 -25.67,41.07 -13.34,11.29 -30.8,14.37 -53.38,10.26 -29.78,-6.16 -52.36,-22.58 -66.73,-49.27l-16.43 10.26c20.53,31.83 47.22,51.33 80.08,58.52 31.82,6.16 59.54,1.03 84.18,-14.37 24.64,-15.4 40.04,-39.02 46.2,-70.84 4.11,-19.51 2.05,-42.09 -4.11,-65.71z"/>
  </g>
 </g>
</svg>
