<?xml version="1.0" encoding="UTF-8"?>
<!DOCTYPE svg PUBLIC "-//W3C//DTD SVG 1.1//EN" "http://www.w3.org/Graphics/SVG/1.1/DTD/svg11.dtd">
<!-- Creator: CorelDRAW 2020 (64 Bit) -->
<svg xmlns="http://www.w3.org/2000/svg" xml:space="preserve" width="210mm" height="297mm" version="1.1" style="shape-rendering:geometricPrecision; text-rendering:geometricPrecision; image-rendering:optimizeQuality; fill-rule:evenodd; clip-rule:evenodd"
viewBox="0 0 21000 29700"
 xmlns:xlink="http://www.w3.org/1999/xlink"
 xmlns:xodm="http://www.corel.com/coreldraw/odm/2003">
 <defs>
  <style type="text/css">
   <![CDATA[
    .fil0 {fill:maroon}
   ]]>
  </style>
 </defs>
 <g id="Camada_x0020_1">
  <metadata id="CorelCorpID_0Corel-Layer"/>
  <g>
   <path class="fil0" d="M10746.52 15303.73c0.04,-1.18 0.06,-2.36 0.06,-3.54 0,-27.65 -11.82,-52.55 -30.68,-69.89l-727.84 -727.83 0 1470.91c0,629.13 -510.9,1130.45 -1140.03,1130.45 -207.51,0 -402.06,-55.49 -569.63,-152.44l0.01 -1973.42c167.56,-96.94 362.11,-152.43 569.62,-152.43 319.52,0 601.89,124.42 808.75,336.31 17.4,21.41 43.96,35.1 73.7,35.1 52.42,0 94.93,-42.51 94.93,-94.93 0,-26.28 -10.69,-50.06 -27.93,-67.24 -241.11,-245.27 -578.35,-399.08 -949.45,-399.08 -733.97,0 -1328.98,595 -1328.98,1328.99 0,733.98 595.01,1328.99 1328.98,1328.99 484.06,0 907.68,-258.8 1140.03,-645.58l0 550.65c-5.45,39.71 36.16,94.93 94.04,94.93 27.5,0 47.16,-6.58 64.49,-25.28l1169.57 -1169.56 1328.09 1403.62 0 -2999.99 -733.48 733.48c-18.86,17.34 -25.04,36.59 -25.04,64.24 0,1.18 0.03,2.36 0.06,3.54l0 1096.46 -569.63 -569.64 -569.64 569.64 0 -1096.46zm-2657.84 1510.1c-233.08,-208.59 -379.78,-511.73 -379.78,-849.14 0,-337.41 146.69,-640.57 379.78,-849.15l0 1698.29zm42.84 -1968.63c0.61,-0.39 1.21,-0.79 1.83,-1.17l-1.83 1.17zm4323.84 114.44l0 2010.11 -379.84 -379.84 0 -1250.44 379.84 -379.83zm-1898.56 1630.27l-0.01 -1250.44 -379.84 -379.83 0 2010.11 379.85 -379.84z"/>
  </g>
 </g>
</svg>
