<?xml version="1.0" encoding="UTF-8"?>
<!DOCTYPE svg PUBLIC "-//W3C//DTD SVG 1.1//EN" "http://www.w3.org/Graphics/SVG/1.1/DTD/svg11.dtd">
<!-- Creator: CorelDRAW 2020 (64 Bit) -->
<svg xmlns="http://www.w3.org/2000/svg" xml:space="preserve" width="200mm" height="200mm" version="1.1" style="shape-rendering:geometricPrecision; text-rendering:geometricPrecision; image-rendering:optimizeQuality; fill-rule:evenodd; clip-rule:evenodd"
viewBox="0 0 20000 20000"
 xmlns:xlink="http://www.w3.org/1999/xlink"
 xmlns:xodm="http://www.corel.com/coreldraw/odm/2003">
 <defs>
  <style type="text/css">
   <![CDATA[
    .fil0 {fill:maroon}
    .fil1 {fill:maroon;fill-rule:nonzero}
   ]]>
  </style>
 </defs>
 <g id="Camada_x0020_1">
  <metadata id="CorelCorpID_0Corel-Layer"/>
  <g id="_2243933958000">
   <g>
    <path class="fil0" d="M12057.35 5736.29c0.12,-3.65 0.2,-7.32 0.2,-10.99 0,-85.87 -36.71,-163.2 -95.3,-217.06l-2260.51 -2260.51 0 4568.35c0,1953.95 -1586.76,3510.96 -3540.7,3510.96 -644.5,0 -1248.74,-172.35 -1769.15,-473.44l0.02 -6129.04c520.39,-301.09 1124.65,-473.42 1769.13,-473.42 992.37,0 1869.35,386.42 2511.8,1044.51 54.06,66.49 136.52,109 228.89,109 162.82,0 294.83,-132.01 294.83,-294.84 0,-81.6 -33.18,-155.46 -86.73,-208.84 -748.84,-761.75 -1796.22,-1239.46 -2948.79,-1239.46 -2279.58,0 -4127.53,1847.98 -4127.53,4127.58 0,2279.6 1847.95,4127.57 4127.53,4127.57 1503.38,0 2819.07,-803.77 3540.7,-2005.02l0 1710.19c-16.92,123.33 112.3,294.83 292.04,294.83 85.44,0 146.49,-20.43 200.3,-78.49l3632.45 -3632.43 4124.78 4359.37 0 -9317.38 -2278.04 2278.04c-58.58,53.85 -77.77,113.66 -77.77,199.53 0,3.67 0.08,7.34 0.2,10.99l0 3405.38 -1769.15 -1769.18 -1769.2 1769.2 0 -3405.4zm-8254.71 4690.07c-723.9,-647.83 -1179.51,-1589.35 -1179.51,-2637.27 0,-1047.9 455.59,-1989.46 1179.51,-2637.27l0 5274.54zm133.07 -6114.17c1.87,-1.22 3.75,-2.45 5.66,-3.63l-5.66 3.63zm13428.94 355.42l0 6243.01 -1179.71 -1179.71 0.02 -3883.61 1179.69 -1179.69zm-5896.54 5063.3l-0.02 -3883.61 -1179.69 -1179.69 0 6243.01 1179.71 -1179.71z"/>
   </g>
   <path class="fil1" d="M4394.87 16149.72c-88.25,134.47 -197.51,231.12 -331.98,294.16 -163.89,75.64 -323.58,113.46 -479.07,113.46 -294.16,0 -537.9,-117.66 -735.41,-348.79 -197.51,-235.33 -294.16,-571.52 -294.16,-1008.56 0,-462.26 88.25,-815.26 268.95,-1063.2 180.7,-247.93 424.43,-374 731.2,-374 247.94,0 470.67,75.64 672.38,231.12 58.83,46.23 117.66,105.06 163.89,176.5l84.04 -79.84 0 -12.61c-88.24,-105.06 -218.52,-201.71 -390.81,-289.96 -176.5,-88.25 -374.01,-134.47 -592.53,-134.47 -264.75,0 -508.48,63.03 -727.01,184.9 -222.72,121.87 -395.02,310.97 -516.88,567.31 -126.07,256.35 -184.91,525.3 -184.91,815.26 0,437.04 134.48,790.04 399.23,1058.99 268.95,264.75 613.54,399.22 1033.77,399.22 399.22,0 727.01,-151.28 983.34,-441.25l-84.04 -88.24z"/>
   <path id="1" class="fil1" d="M5374 15935.4c0,-264.75 58.84,-453.86 138.68,-567.32 79.84,-113.46 197.51,-168.09 348.79,-168.09 151.29,0 268.95,54.63 348.8,168.09 79.84,113.46 138.68,302.57 138.68,567.32 0,268.95 -58.84,458.05 -138.68,563.11 -79.85,109.26 -197.51,163.89 -348.8,163.89 -147.08,0 -264.74,-54.63 -344.59,-163.89 -84.04,-105.06 -142.88,-294.16 -142.88,-563.11zm-268.95 -8.41c0,252.14 71.44,449.65 218.52,596.73 151.29,147.09 327.79,222.73 537.9,222.73 210.12,0 386.62,-71.44 537.9,-218.52 147.09,-147.09 218.53,-344.6 218.53,-600.94 0,-231.13 -71.44,-420.23 -218.53,-579.92 -142.88,-155.49 -323.58,-231.13 -537.9,-231.13 -214.32,0 -395.02,75.64 -537.9,231.13 -147.08,155.48 -218.52,348.79 -218.52,579.92z"/>
   <path id="2" class="fil1" d="M8824.11 15540.38c0,-92.46 -12.61,-121.87 -12.61,-121.87 -12.6,-117.67 -88.25,-201.71 -168.09,-256.34 -75.64,-58.84 -180.7,-88.25 -306.77,-88.25 -113.46,0 -218.52,25.21 -315.18,79.84 -96.65,54.63 -189.1,134.48 -273.15,243.74l0 -323.58 -268.95 0 0 613.54 0 462.26 0 529.49 268.95 0 0 -529.49 0 -642.96c84.05,-100.86 168.09,-176.5 247.94,-226.93 84.05,-50.43 163.89,-75.64 239.53,-75.64 79.85,0 147.08,21.01 201.72,67.24 54.63,42.02 88.24,96.65 96.65,155.48 12.61,63.04 16.81,159.69 16.81,294.17l0 428.64 0 529.49 273.15 0 0 -529.49 0 -609.34z"/>
   <polygon id="3" class="fil1" points="11084.96,15174.77 10526.05,16460.69 9950.34,15174.77 9660.37,15174.77 10370.56,16746.45 10475.62,16746.45 11169,15174.77 "/>
   <path id="4" class="fil1" d="M12143.94 14569.64c54.64,0 100.86,-21.02 138.68,-58.84 37.82,-37.82 58.83,-84.04 58.83,-142.88 0,-50.43 -21.01,-96.65 -58.83,-138.67 -37.82,-37.83 -84.04,-58.84 -138.68,-58.84 -54.63,0 -96.65,21.01 -138.67,58.84 -37.82,42.02 -54.63,88.24 -54.63,138.67 0,58.84 16.81,105.06 54.63,142.88 42.02,37.82 84.04,58.84 138.67,58.84l0 0zm-134.47 504.28l0 584.12 0 0c0,8.41 0,16.81 0,25.22l0 466.46 0 529.49 268.95 0 0 -529.49 0 -273.16 0 -802.64 -42.02 0 -226.93 0z"/>
   <path id="5" class="fil1" d="M13160.91 15174.77l0 84.05 218.51 0 0 857.28c0,176.49 8.41,298.36 25.22,369.8 16.81,67.24 58.83,130.27 126.07,180.7 67.24,54.63 142.88,79.85 231.13,79.85 75.64,0 151.28,-21.01 226.92,-63.04 75.65,-42.02 130.28,-100.85 168.1,-180.7l-58.84 -37.82c-63.03,100.86 -142.87,151.28 -231.12,151.28 -46.23,0 -88.25,-12.6 -126.07,-42.02 -42.03,-29.41 -67.24,-71.44 -79.85,-117.66 -12.61,-50.43 -16.81,-142.88 -16.81,-285.76l0 -911.91 453.85 0 0 -84.05 -453.85 0 0 -470.66 -264.75 0 0 470.66 -218.51 0z"/>
   <path id="6" class="fil1" d="M16148.76 16427.07c-96.65,147.08 -239.53,218.52 -428.63,218.52 -163.9,0 -289.97,-67.24 -369.81,-197.51 -84.05,-134.47 -126.07,-336.19 -126.07,-600.93 0,-33.62 4.2,-88.25 8.4,-159.69l1029.57 0c0,-147.08 -42.03,-273.15 -151.28,-390.82 -105.06,-121.87 -260.54,-180.7 -458.05,-180.7 -210.12,0 -386.62,79.84 -525.29,235.33 -138.68,159.69 -210.12,357.2 -210.12,596.73 0,168.1 37.82,310.98 109.26,428.64 71.44,117.67 163.89,205.92 277.35,273.15 117.67,63.04 235.34,96.66 365.61,96.66 134.47,0 264.75,-37.82 378.21,-105.06 67.24,-42.02 121.87,-92.45 163.88,-151.29l-63.03 -63.03zm-508.48 -1231.29c327.78,0 399.22,331.99 399.22,416.04l-802.64 0c46.22,-277.36 176.49,-416.04 403.42,-416.04z"/>
   <path id="7" class="fil1" d="M17010.23 16523.72l0 4.21c4.21,-4.21 8.41,-4.21 8.41,-8.41l-8.41 4.2zm878.29 -399.22c-29.41,-96.65 -138.67,-214.32 -323.58,-344.59 -121.87,-88.25 -201.71,-163.89 -243.73,-218.52 -37.82,-58.84 -54.63,-117.67 -42.03,-184.91 12.61,-58.83 46.23,-105.05 100.86,-142.87 50.43,-33.62 113.46,-46.23 184.9,-29.42 96.66,16.81 168.1,71.44 222.73,163.89l67.23 -46.23c-63.03,-109.26 -155.48,-176.49 -277.35,-201.71 -126.07,-25.21 -235.33,0 -319.38,75.64 -88.25,75.65 -142.88,159.69 -159.69,256.35 -21.01,105.06 -4.2,197.51 46.23,277.35 50.43,84.05 142.88,180.7 277.35,281.56 126.07,96.65 214.32,176.5 252.14,235.33 37.82,58.83 50.43,126.07 33.62,205.91 -12.61,63.04 -46.22,121.87 -105.06,168.1 -54.63,46.22 -126.07,58.83 -218.52,42.02 -121.87,-25.21 -214.32,-92.45 -273.15,-201.71l-67.24 42.02c84.05,130.27 193.31,210.12 327.78,239.54 130.28,25.21 243.74,4.2 344.6,-58.84 100.85,-63.03 163.89,-159.69 189.1,-289.96 16.81,-79.84 8.41,-172.3 -16.81,-268.95z"/>
  </g>
 </g>
</svg>
