<?xml version="1.0" encoding="utf-8"?>
<svg width="800mm" height="200mm" version="1.1" style="shape-rendering:geometricPrecision; text-rendering:geometricPrecision; image-rendering:optimizeQuality; fill-rule:evenodd; clip-rule:evenodd" viewBox="0 0 500 69.741" xmlns="http://www.w3.org/2000/svg">
  <defs>
    <style type="text/css">
   
    .fil0 {fill:maroon}
    .fil1 {fill:maroon;fill-rule:nonzero}
   
  </style>
  </defs>
  <g id="Camada_x0020_1" transform="matrix(0.006974, 0, 0, 0.006974, -28.821684, -34.923607)">
    <g id="_2246671740544">
      <g>
        <path class="fil0" d="M14890.88 7678.48c0.13,-3.92 0.22,-7.86 0.22,-11.79 0,-92.17 -39.4,-175.17 -102.28,-232.97l-2426.13 -2426.12 0 4903.04c0,2097.1 -1703.01,3768.18 -3800.1,3768.18 -691.72,0 -1340.23,-184.97 -1898.77,-508.12l0.03 -6578.08c558.51,-323.14 1207.05,-508.1 1898.74,-508.1 1065.07,0 2006.3,414.73 2695.83,1121.04 58.01,71.36 146.52,116.98 245.65,116.98 174.76,0 316.44,-141.68 316.44,-316.44 0,-87.58 -35.62,-166.85 -93.09,-224.13 -803.71,-817.57 -1927.82,-1330.27 -3164.83,-1330.27 -2446.59,0 -4429.93,1983.36 -4429.93,4429.97 0,2446.62 1983.34,4429.98 4429.93,4429.98 1613.52,0 3025.6,-862.67 3800.1,-2151.92l0 1835.48c-18.16,132.36 120.53,316.44 313.44,316.44 91.7,0 157.22,-21.93 214.98,-84.25l3898.56 -3898.55 4426.99 4678.75 0 -10000 -2444.94 2444.93c-62.88,57.8 -83.47,121.99 -83.47,214.16 0,3.93 0.09,7.87 0.22,11.79l0 3654.87 -1898.77 -1898.79 -1898.82 1898.81 0 -3654.89zm-8859.47 5033.68c-776.93,-695.29 -1265.92,-1705.79 -1265.92,-2830.49 0,-1124.67 488.97,-2135.21 1265.92,-2830.48l0 5660.97zm142.82 -6562.11c2,-1.32 4.02,-2.63 6.07,-3.9l-6.07 3.9zm14412.79 381.46l0 6700.39 -1266.14 -1266.14 0.02 -4168.13 1266.12 -1266.12zm-6328.55 5434.25l-0.02 -4168.13 -1266.12 -1266.12 0 6700.39 1266.14 -1266.14z"/>
      </g>
      <path class="fil1" d="M32410.96 13023.8c-283.4,431.85 -634.28,742.24 -1066.13,944.67 -526.32,242.92 -1039.14,364.38 -1538.46,364.38 -944.66,0 -1727.39,-377.87 -2361.67,-1120.11 -634.28,-755.74 -944.66,-1835.36 -944.66,-3238.87 0,-1484.48 283.39,-2618.09 863.69,-3414.31 580.3,-796.22 1363.02,-1201.08 2348.17,-1201.08 796.22,0 1511.47,242.91 2159.25,742.24 188.93,148.45 377.86,337.38 526.31,566.8l269.9 -256.41 0 -40.48c-283.39,-337.39 -701.75,-647.78 -1255.05,-931.18 -566.81,-283.4 -1201.08,-431.85 -1902.83,-431.85 -850.2,0 -1632.93,202.43 -2334.69,593.79 -715.24,391.37 -1268.54,998.66 -1659.91,1821.87 -404.85,823.21 -593.79,1686.91 -593.79,2618.08 0,1403.51 431.85,2537.12 1282.05,3400.82 863.69,850.2 1970.31,1282.05 3319.84,1282.05 1282.04,0 2334.67,-485.83 3157.87,-1417.01l-269.89 -283.4z"/>
      <path id="1" class="fil1" d="M35555.35 12335.54c0,-850.2 188.92,-1457.49 445.33,-1821.86 256.41,-364.37 634.28,-539.81 1120.11,-539.81 485.83,0 863.7,175.44 1120.11,539.81 256.41,364.37 445.34,971.66 445.34,1821.86 0,863.7 -188.93,1470.99 -445.34,1808.37 -256.41,350.88 -634.28,526.32 -1120.11,526.32 -472.33,0 -850.2,-175.44 -1106.61,-526.32 -269.91,-337.38 -458.83,-944.67 -458.83,-1808.37zm-863.7 -26.99c0,809.72 229.42,1444 701.76,1916.33 485.82,472.34 1052.62,715.25 1727.38,715.25 674.77,0 1241.57,-229.42 1727.39,-701.75 472.34,-472.34 701.76,-1106.61 701.76,-1929.83 0,-742.24 -229.42,-1349.53 -701.76,-1862.35 -458.83,-499.32 -1039.13,-742.24 -1727.39,-742.24 -688.26,0 -1268.55,242.92 -1727.38,742.24 -472.34,499.33 -701.76,1120.11 -701.76,1862.35z"/>
      <path id="2" class="fil1" d="M46634.95 11066.99c0,-296.9 -40.49,-391.37 -40.49,-391.37 -40.49,-377.87 -283.4,-647.77 -539.81,-823.21 -242.92,-188.93 -580.3,-283.4 -985.16,-283.4 -364.37,0 -701.74,80.97 -1012.13,256.41 -310.4,175.44 -607.29,431.85 -877.2,782.73l0 -1039.14 -863.7 0 0 1970.31 0 1484.48 0 1700.41 863.7 0 0 -1700.41 0 -2064.78c269.91,-323.88 539.81,-566.8 796.22,-728.74 269.91,-161.94 526.31,-242.92 769.23,-242.92 256.41,0 472.33,67.48 647.77,215.93 175.44,134.95 283.4,310.39 310.39,499.32 40.49,202.43 53.98,512.82 53.98,944.67l0 1376.52 0 1700.41 877.2 0 0 -1700.41 0 -1956.81z"/>
      <polygon id="3" class="fil1" points="53895.38,9892.9 52100.52,14022.45 50251.67,9892.9 49320.5,9892.9 51601.19,14940.13 51938.57,14940.13 54165.29,9892.9 "/>
      <path id="4" class="fil1" d="M57296.19 7949.57c175.44,0 323.88,-67.47 445.34,-188.93 121.46,-121.46 188.94,-269.91 188.94,-458.84 0,-161.94 -67.48,-310.39 -188.94,-445.34 -121.46,-121.46 -269.9,-188.94 -445.34,-188.94 -175.44,0 -310.4,67.48 -445.35,188.94 -121.46,134.95 -175.44,283.4 -175.44,445.34 0,188.93 53.98,337.38 175.44,458.84 134.95,121.46 269.91,188.93 445.35,188.93l0 0zm-431.85 1619.44l0 1875.84 0 0c0,27 0,53.99 0,80.98l0 1497.97 0 1700.41 863.7 0 0 -1700.41 0 -877.19 0 -2577.6 -134.96 0 -728.74 0z"/>
      <path id="5" class="fil1" d="M60562.04 9892.9l0 269.9 701.76 0 0 2753.04c0,566.8 26.99,958.17 80.97,1187.59 53.98,215.92 188.93,418.35 404.86,580.29 215.92,175.44 458.83,256.41 742.23,256.41 242.91,0 485.83,-67.47 728.74,-202.42 242.92,-134.96 418.36,-323.89 539.82,-580.3l-188.94 -121.46c-202.43,323.89 -458.84,485.83 -742.24,485.83 -148.45,0 -283.4,-40.49 -404.86,-134.95 -134.95,-94.47 -215.92,-229.42 -256.41,-377.87 -40.49,-161.94 -53.98,-458.84 -53.98,-917.68l0 -2928.48 1457.49 0 0 -269.9 -1457.49 0 0 -1511.48 -850.19 0 0 1511.48 -701.76 0z"/>
      <path id="6" class="fil1" d="M70157.16 13914.49c-310.39,472.34 -769.23,701.76 -1376.52,701.76 -526.32,0 -931.17,-215.93 -1187.58,-634.28 -269.9,-431.85 -404.85,-1079.62 -404.85,-1929.83 0,-107.96 13.49,-283.4 26.99,-512.82l3306.33 0c0,-472.33 -134.95,-877.19 -485.83,-1255.06 -337.38,-391.36 -836.71,-580.3 -1470.98,-580.3 -674.76,0 -1241.56,256.41 -1686.91,755.74 -445.34,512.82 -674.76,1147.1 -674.76,1916.33 0,539.81 121.46,998.65 350.88,1376.52 229.42,377.87 526.31,661.27 890.69,877.19 377.86,202.43 755.72,310.39 1174.08,310.39 431.85,0 850.2,-121.45 1214.57,-337.38 215.93,-134.95 391.37,-296.89 526.32,-485.83l-202.43 -202.43zm-1632.93 -3954.12c1052.63,0 1282.05,1066.13 1282.05,1336.04l-2577.59 0c148.45,-890.69 566.8,-1336.04 1295.54,-1336.04z"/>
      <path id="7" class="fil1" d="M72923.68 14224.88l0 13.5c13.5,-13.5 26.99,-13.5 26.99,-26.99l-26.99 13.49zm2820.51 -1282.05c-94.47,-310.39 -445.35,-688.26 -1039.14,-1106.61 -391.36,-283.4 -647.78,-526.32 -782.73,-701.76 -121.45,-188.93 -175.43,-377.87 -134.94,-593.79 40.48,-188.93 148.44,-337.38 323.88,-458.84 161.94,-107.96 364.37,-148.45 593.79,-94.47 310.39,53.98 539.81,229.42 715.25,526.32l215.92 -148.45c-202.43,-350.88 -499.32,-566.8 -890.69,-647.77 -404.85,-80.97 -755.73,0 -1025.63,242.91 -283.4,242.92 -458.84,512.82 -512.82,823.22 -67.48,337.38 -13.49,634.27 148.45,890.68 161.94,269.91 458.84,580.3 890.68,904.19 404.86,310.39 688.26,566.8 809.72,755.74 121.45,188.93 161.94,404.85 107.96,661.26 -40.49,202.43 -148.45,391.37 -337.38,539.82 -175.44,148.44 -404.86,188.93 -701.76,134.95 -391.35,-80.97 -688.25,-296.9 -877.18,-647.78l-215.93 134.96c269.91,418.35 620.79,674.76 1052.63,769.23 418.35,80.97 782.72,13.49 1106.61,-188.93 323.89,-202.43 526.32,-512.83 607.29,-931.18 53.98,-256.41 26.99,-553.31 -53.98,-863.7z"/>
    </g>
  </g>
</svg>