<?xml version="1.0" encoding="UTF-8"?>
<!DOCTYPE svg PUBLIC "-//W3C//DTD SVG 1.1//EN" "http://www.w3.org/Graphics/SVG/1.1/DTD/svg11.dtd">
<!-- Creator: CorelDRAW 2020 (64 Bit) -->
<svg xmlns="http://www.w3.org/2000/svg" xml:space="preserve" width="200mm" height="200mm" version="1.1" style="shape-rendering:geometricPrecision; text-rendering:geometricPrecision; image-rendering:optimizeQuality; fill-rule:evenodd; clip-rule:evenodd"
viewBox="0 0 20000 20000"
 xmlns:xlink="http://www.w3.org/1999/xlink"
 xmlns:xodm="http://www.corel.com/coreldraw/odm/2003">
 <defs>
  <style type="text/css">
   <![CDATA[
    .fil0 {fill:maroon}
   ]]>
  </style>
 </defs>
 <g id="Camada_x0020_1">
  <metadata id="CorelCorpID_0Corel-Layer"/>
  <g>
   <path class="fil0" d="M12208.62 7678.48c0.13,-3.92 0.22,-7.86 0.22,-11.79 0,-92.17 -39.4,-175.17 -102.28,-232.97l-2426.13 -2426.12 0 4903.04c0,2097.1 -1703.01,3768.18 -3800.1,3768.18 -691.72,0 -1340.23,-184.97 -1898.77,-508.12l0.03 -6578.08c558.51,-323.14 1207.05,-508.1 1898.74,-508.1 1065.07,0 2006.3,414.73 2695.83,1121.04 58.01,71.36 146.52,116.98 245.65,116.98 174.76,0 316.44,-141.68 316.44,-316.44 0,-87.58 -35.62,-166.85 -93.09,-224.13 -803.71,-817.57 -1927.82,-1330.27 -3164.83,-1330.27 -2446.59,0 -4429.93,1983.36 -4429.93,4429.97 0,2446.62 1983.34,4429.98 4429.93,4429.98 1613.52,0 3025.6,-862.67 3800.1,-2151.92l0 1835.48c-18.16,132.36 120.53,316.44 313.44,316.44 91.7,0 157.22,-21.93 214.98,-84.25l3898.56 -3898.55 4426.99 4678.75 0 -10000 -2444.94 2444.93c-62.88,57.8 -83.47,121.99 -83.47,214.16 0,3.93 0.09,7.87 0.22,11.79l0 3654.87 -1898.77 -1898.79 -1898.82 1898.81 0 -3654.89zm-8859.47 5033.68c-776.93,-695.29 -1265.92,-1705.79 -1265.92,-2830.49 0,-1124.67 488.97,-2135.21 1265.92,-2830.48l0 5660.97zm142.82 -6562.11c2,-1.32 4.02,-2.63 6.07,-3.9l-6.07 3.9zm14412.79 381.46l0 6700.39 -1266.14 -1266.14 0.02 -4168.13 1266.12 -1266.12zm-6328.55 5434.25l-0.02 -4168.13 -1266.12 -1266.12 0 6700.39 1266.14 -1266.14z"/>
  </g>
 </g>
</svg>
