<?xml version="1.0" standalone="no"?>
<!DOCTYPE svg PUBLIC "-//W3C//DTD SVG 20010904//EN"
 "http://www.w3.org/TR/2001/REC-SVG-20010904/DTD/svg10.dtd">
<svg version="1.0" xmlns="http://www.w3.org/2000/svg"
 width="700.000000pt" height="700.000000pt" viewBox="0 0 700.000000 700.000000"
 preserveAspectRatio="xMidYMid meet">
<metadata>
Created by potrace 1.14, written by Peter Selinger 2001-2017
</metadata>
<g transform="translate(0.000000,700.000000) scale(0.100000,-0.100000)"
fill="#000000" stroke="none">
<path d="M3389 4360 c-1 -487 -3 -910 -5 -940 -21 -285 -164 -597 -369 -805
-407 -415 -1034 -519 -1556 -259 l-65 32 1 1149 c1 631 3 1151 4 1155 2 11
141 75 231 106 143 49 248 66 415 67 166 0 221 -6 343 -36 211 -52 421 -167
573 -313 68 -65 87 -76 133 -76 71 0 120 76 96 147 -20 57 -214 215 -377 307
-154 87 -360 157 -533 183 -69 10 -356 10 -430 1 -234 -30 -489 -131 -693
-275 -111 -79 -282 -250 -359 -360 -133 -190 -209 -365 -261 -598 -31 -144
-31 -463 1 -610 106 -491 418 -888 863 -1098 75 -35 232 -91 286 -102 167 -34
248 -42 393 -40 85 2 166 6 180 8 14 3 42 8 62 11 86 13 308 77 333 96 6 4 20
11 32 14 49 15 213 112 298 176 141 106 337 317 378 407 6 13 14 23 19 23 4 0
8 -151 8 -336 l0 -337 33 -31 c37 -34 83 -44 120 -25 12 6 331 320 710 698
l687 686 30 -34 c17 -18 103 -110 192 -204 90 -94 195 -205 233 -245 67 -71
94 -101 257 -272 39 -41 105 -111 147 -155 42 -45 144 -153 227 -240 84 -88
166 -176 184 -195 108 -117 266 -280 271 -280 3 0 6 783 6 1740 0 957 -2 1740
-3 1740 -12 0 -866 -865 -873 -883 -5 -12 -9 -305 -9 -652 0 -346 -1 -639 -1
-650 -1 -14 -96 75 -329 308 -180 180 -331 327 -335 327 -4 0 -153 -146 -332
-325 -179 -179 -326 -325 -328 -325 -2 0 -4 289 -4 643 0 353 -3 654 -6 667
-4 15 -189 207 -442 460 l-435 435 -1 -885z m661 -817 l0 -732 -220 -221 -220
-221 0 1172 0 1172 220 -219 220 -219 0 -732z m2216 -3 l0 -1171 -221 221
-221 221 0 729 1 730 220 220 c121 121 220 220 221 220 0 0 0 -527 0 -1170z
m-5096 5 c0 -538 -2 -980 -4 -982 -5 -5 -73 63 -127 127 -142 170 -247 390
-285 598 -2 12 -7 34 -10 50 -3 15 -7 95 -9 177 -5 229 31 403 126 600 65 137
144 249 259 367 25 25 46 45 48 43 2 -1 3 -443 2 -980z"/>
</g>
</svg>
